<?xml version="1.0" encoding="utf-8"?>
<!-- Generator: Adobe Illustrator 25.0.0, SVG Export Plug-In . SVG Version: 6.00 Build 0)  -->
<svg version="1.1" id="Group_4" xmlns="http://www.w3.org/2000/svg" xmlns:xlink="http://www.w3.org/1999/xlink" x="0px" y="0px"
	 viewBox="0 0 46.6 47.1" style="enable-background:new 0 0 46.6 47.1;" xml:space="preserve">
<style type="text/css">
	.st0{fill:#FFFFFF;}
	.st1{clip-path:url(#SVGID_3_);}
</style>
<path id="Path_2" class="st0" d="M23.3,0C20.9,0,19,1.9,19,4.3l0,0V18c0,2.4,1.9,4.3,4.3,4.3s4.3-1.9,4.3-4.3V4.3
	C27.6,1.9,25.7,0,23.3,0z M18.1,30.6c0,2.9,2.4,5.3,5.3,5.2c2.9,0,5.3-2.4,5.2-5.3c0-2.9-2.4-5.2-5.3-5.2
	C20.4,25.3,18.1,27.6,18.1,30.6C18.1,30.5,18.1,30.5,18.1,30.6z M31.6,36.8L31.6,36.8c-0.1,0.1-0.2,0.1-0.3,0.2c0,0,0,0-0.1,0
	S31,37.1,31,37.1l-0.2,0.1c0,0-0.1,0.1-0.2,0.1s-0.1,0.1-0.2,0.1s-0.1,0.1-0.2,0.1c0,0-0.1,0-0.1,0.1c-0.2,0.1-0.5,0.2-0.7,0.3
	c0,0-0.1,0-0.1,0.1l0,0c-0.1,0-0.1,0.1-0.2,0.1s-0.2,0.1-0.3,0.1l-0.2,0.1l0,0c-0.1,0-0.2,0.1-0.3,0.1l-0.2,0.1
	c-0.1,0-0.2,0.1-0.3,0.1s-0.2,0.1-0.3,0.1h-0.1h-0.2H27c-0.1,0-0.2,0.1-0.4,0.1c-0.1,0-0.1,0-0.2,0h-0.1c-0.1,0-0.2,0-0.3,0.1l0,0
	l0,0.1c-0.1,0-0.2,0-0.3,0h-0.2c-0.2,0-0.3,0-0.5,0.1h-0.1c-0.3,0-0.5,0.1-0.8,0.1h-0.3c-0.1,0-0.2,0-0.3,0h-0.3c-0.1,0-0.2,0-0.3,0
	s-0.2,0-0.3,0h-0.2c-0.1,0-0.2,0-0.4,0h-0.1h-0.1h-0.2c-0.1,0-0.1,0-0.2,0h-0.1c-0.2,0-0.4,0-0.5-0.1h-0.2h-0.1
	c-0.1,0-0.2,0-0.3-0.1s-0.2,0-0.3-0.1l-0.3-0.1c-0.1,0-0.2-0.1-0.3-0.1c-0.1,0-0.2,0-0.2-0.1c-0.1,0-0.1,0-0.2-0.1h-0.1
	c-0.1,0-0.2-0.1-0.3-0.1l0,0c-0.1,0-0.2-0.1-0.3-0.1c-0.2-0.1-0.3-0.1-0.5-0.2l0,0c-0.1,0-0.2-0.1-0.3-0.1c-0.1,0-0.1-0.1-0.2-0.1
	s-0.1-0.1-0.2-0.1h-0.1l-0.2-0.1c-0.1,0-0.2-0.1-0.2-0.1l-0.2-0.1c-0.1,0-0.1-0.1-0.2-0.1s-0.2-0.1-0.2-0.1L15.4,37c0,0,0,0-0.1,0
	s-0.1-0.1-0.2-0.1l0,0l-4.6,6.4l0,0c0.9,0.6,1.9,1.2,2.9,1.6c0.1,0.1,0.3,0.1,0.4,0.2c0.1,0,0.2,0.1,0.3,0.1l0.2,0.1
	c0.3,0.1,0.7,0.3,1,0.4c0.1,0,0.1,0,0.2,0.1c0.1,0,0.3,0.1,0.4,0.1c0.2,0.1,0.5,0.2,0.8,0.2c0.1,0,0.3,0.1,0.4,0.1s0.3,0.1,0.4,0.1
	s0.3,0.1,0.4,0.1c0.3,0.1,0.5,0.1,0.8,0.2c0.1,0,0.2,0,0.2,0l0.3,0.1c0.1,0,0.3,0,0.4,0.1c0.1,0,0.2,0,0.3,0.1H20c0.1,0,0.1,0,0.2,0
	s0.3,0,0.4,0.1c0.1,0,0.1,0,0.2,0H21h0.2c0.1,0,0.2,0,0.3,0c0.1,0,0.1,0,0.2,0h0.2c0,0,0,0,0.1,0s0.1,0,0.2,0c0,0,0,0,0.1,0h0.1
	c0.1,0,0.2,0,0.3,0c0.1,0,0.2,0,0.2,0H23h0.1c0.1,0,0.3,0,0.4,0s0.3,0,0.4,0H24h0.1c0.1,0,0.2,0,0.2,0c0.1,0,0.2,0,0.3,0
	c0.1,0,0.1,0,0.1,0h0.1c0.1,0,0.1,0,0.2,0c0,0,0,0,0.1,0h0.2c0.1,0,0.1,0,0.2,0s0.2,0,0.3,0H26h0.2c0.1,0,0.1,0,0.2,0s0.3,0,0.4-0.1
	c0.1,0,0.1,0,0.2,0h0.1c0.1,0,0.2,0,0.3-0.1c0.1,0,0.3,0,0.4-0.1l0.3-0.1c0.1,0,0.2,0,0.2,0c0.3-0.1,0.5-0.1,0.8-0.2
	c0.1,0,0.3-0.1,0.4-0.1s0.3-0.1,0.4-0.1s0.3-0.1,0.4-0.1c0.3-0.1,0.5-0.2,0.8-0.2c0.1,0,0.3-0.1,0.4-0.1s0.1,0,0.2-0.1
	c0.3-0.1,0.7-0.3,1-0.4c0.1,0,0.1-0.1,0.2-0.1c0.1,0,0.2-0.1,0.3-0.1c0.1-0.1,0.3-0.1,0.4-0.2c1-0.5,2-1,2.9-1.6l0,0L31.6,36.8z
	 M41,8.6c-1.4-1.7-3.9-1.9-5.5-0.5c-1.7,1.4-1.9,3.9-0.5,5.5l0,0c5.6,6.5,4.8,16.2-1.6,21.8c-0.3,0.3-0.6,0.5-0.9,0.7l4.6,6.4
	c10.4-7.5,12.6-22.1,5-32.5C41.8,9.5,41.4,9,41,8.6L41,8.6z M7.8,23.8c0-3.7,1.3-7.3,3.7-10.1c1.4-1.6,1.3-4.1-0.4-5.5
	s-4-1.3-5.4,0.3l0,0C-2.7,18.3-1.7,33,8.1,41.4c0.5,0.4,1,0.8,1.5,1.2l4.6-6.4C10.2,33.3,7.8,28.7,7.8,23.8L7.8,23.8z"/>
<g>
	<g>
		<path id="SVGID_1_" class="st0" d="M23.3,0C20.9,0,19,1.9,19,4.3l0,0V18c0,2.4,1.9,4.3,4.3,4.3s4.3-1.9,4.3-4.3V4.3
			C27.6,1.9,25.7,0,23.3,0z M18.1,30.6c0,2.9,2.4,5.3,5.3,5.2c2.9,0,5.3-2.4,5.2-5.3c0-2.9-2.4-5.2-5.3-5.2
			C20.4,25.3,18.1,27.6,18.1,30.6C18.1,30.5,18.1,30.5,18.1,30.6z M31.6,36.8L31.6,36.8c-0.1,0.1-0.2,0.1-0.3,0.2c0,0,0,0-0.1,0
			S31,37.1,31,37.1l-0.2,0.1c0,0-0.1,0.1-0.2,0.1s-0.1,0.1-0.2,0.1s-0.1,0.1-0.2,0.1c0,0-0.1,0-0.1,0.1c-0.2,0.1-0.5,0.2-0.7,0.3
			c0,0-0.1,0-0.1,0.1l0,0c-0.1,0-0.1,0.1-0.2,0.1s-0.2,0.1-0.3,0.1l-0.2,0.1l0,0c-0.1,0-0.2,0.1-0.3,0.1l-0.2,0.1
			c-0.1,0-0.2,0.1-0.3,0.1s-0.2,0.1-0.3,0.1h-0.1h-0.2H27c-0.1,0-0.2,0.1-0.4,0.1c-0.1,0-0.1,0-0.2,0h-0.1c-0.1,0-0.2,0-0.3,0.1l0,0
			l0,0.1c-0.1,0-0.2,0-0.3,0h-0.2c-0.2,0-0.3,0-0.5,0.1h-0.1c-0.3,0-0.5,0.1-0.8,0.1h-0.3c-0.1,0-0.2,0-0.3,0h-0.3
			c-0.1,0-0.2,0-0.3,0s-0.2,0-0.3,0h-0.2c-0.1,0-0.2,0-0.4,0h-0.1h-0.1h-0.2c-0.1,0-0.1,0-0.2,0h-0.1c-0.2,0-0.4,0-0.5-0.1h-0.2
			h-0.1c-0.1,0-0.2,0-0.3-0.1s-0.2,0-0.3-0.1l-0.3-0.1c-0.1,0-0.2-0.1-0.3-0.1c-0.1,0-0.2,0-0.2-0.1c-0.1,0-0.1,0-0.2-0.1h-0.1
			c-0.1,0-0.2-0.1-0.3-0.1l0,0c-0.1,0-0.2-0.1-0.3-0.1c-0.2-0.1-0.3-0.1-0.5-0.2l0,0c-0.1,0-0.2-0.1-0.3-0.1c-0.1,0-0.1-0.1-0.2-0.1
			s-0.1-0.1-0.2-0.1h-0.1l-0.2-0.1c-0.1,0-0.2-0.1-0.2-0.1l-0.2-0.1c-0.1,0-0.1-0.1-0.2-0.1s-0.2-0.1-0.2-0.1L15.4,37c0,0,0,0-0.1,0
			s-0.1-0.1-0.2-0.1l0,0l-4.6,6.4l0,0c0.9,0.6,1.9,1.2,2.9,1.6c0.1,0.1,0.3,0.1,0.4,0.2c0.1,0,0.2,0.1,0.3,0.1l0.2,0.1
			c0.3,0.1,0.7,0.3,1,0.4c0.1,0,0.1,0,0.2,0.1c0.1,0,0.3,0.1,0.4,0.1c0.2,0.1,0.5,0.2,0.8,0.2c0.1,0,0.3,0.1,0.4,0.1
			s0.3,0.1,0.4,0.1s0.3,0.1,0.4,0.1c0.3,0.1,0.5,0.1,0.8,0.2c0.1,0,0.2,0,0.2,0l0.3,0.1c0.1,0,0.3,0,0.4,0.1c0.1,0,0.2,0,0.3,0.1H20
			c0.1,0,0.1,0,0.2,0s0.3,0,0.4,0.1c0.1,0,0.1,0,0.2,0H21h0.2c0.1,0,0.2,0,0.3,0c0.1,0,0.1,0,0.2,0h0.2c0,0,0,0,0.1,0s0.1,0,0.2,0
			c0,0,0,0,0.1,0h0.1c0.1,0,0.2,0,0.3,0c0.1,0,0.2,0,0.2,0H23h0.1c0.1,0,0.3,0,0.4,0s0.3,0,0.4,0H24h0.1c0.1,0,0.2,0,0.2,0
			c0.1,0,0.2,0,0.3,0c0.1,0,0.1,0,0.1,0h0.1c0.1,0,0.1,0,0.2,0c0,0,0,0,0.1,0h0.2c0.1,0,0.1,0,0.2,0s0.2,0,0.3,0H26h0.2
			c0.1,0,0.1,0,0.2,0s0.3,0,0.4-0.1c0.1,0,0.1,0,0.2,0h0.1c0.1,0,0.2,0,0.3-0.1c0.1,0,0.3,0,0.4-0.1l0.3-0.1c0.1,0,0.2,0,0.2,0
			c0.3-0.1,0.5-0.1,0.8-0.2c0.1,0,0.3-0.1,0.4-0.1s0.3-0.1,0.4-0.1s0.3-0.1,0.4-0.1c0.3-0.1,0.5-0.2,0.8-0.2c0.1,0,0.3-0.1,0.4-0.1
			s0.1,0,0.2-0.1c0.3-0.1,0.7-0.3,1-0.4c0.1,0,0.1-0.1,0.2-0.1c0.1,0,0.2-0.1,0.3-0.1c0.1-0.1,0.3-0.1,0.4-0.2c1-0.5,2-1,2.9-1.6
			l0,0L31.6,36.8z M41,8.6c-1.4-1.7-3.9-1.9-5.5-0.5c-1.7,1.4-1.9,3.9-0.5,5.5l0,0c5.6,6.5,4.8,16.2-1.6,21.8
			c-0.3,0.3-0.6,0.5-0.9,0.7l4.6,6.4c10.4-7.5,12.6-22.1,5-32.5C41.8,9.5,41.4,9,41,8.6L41,8.6z M7.8,23.8c0-3.7,1.3-7.3,3.7-10.1
			c1.4-1.6,1.3-4.1-0.4-5.5s-4-1.3-5.4,0.3l0,0C-2.7,18.3-1.7,33,8.1,41.4c0.5,0.4,1,0.8,1.5,1.2l4.6-6.4
			C10.2,33.3,7.8,28.7,7.8,23.8L7.8,23.8z"/>
	</g>
	<g>
		<defs>
			<path id="SVGID_2_" d="M23.3,0C20.9,0,19,1.9,19,4.3l0,0V18c0,2.4,1.9,4.3,4.3,4.3s4.3-1.9,4.3-4.3V4.3C27.6,1.9,25.7,0,23.3,0z
				 M18.1,30.6c0,2.9,2.4,5.3,5.3,5.2c2.9,0,5.3-2.4,5.2-5.3c0-2.9-2.4-5.2-5.3-5.2C20.4,25.3,18.1,27.6,18.1,30.6
				C18.1,30.5,18.1,30.5,18.1,30.6z M31.6,36.8L31.6,36.8c-0.1,0.1-0.2,0.1-0.3,0.2c0,0,0,0-0.1,0S31,37.1,31,37.1l-0.2,0.1
				c0,0-0.1,0.1-0.2,0.1s-0.1,0.1-0.2,0.1s-0.1,0.1-0.2,0.1c0,0-0.1,0-0.1,0.1c-0.2,0.1-0.5,0.2-0.7,0.3c0,0-0.1,0-0.1,0.1l0,0
				c-0.1,0-0.1,0.1-0.2,0.1s-0.2,0.1-0.3,0.1l-0.2,0.1l0,0c-0.1,0-0.2,0.1-0.3,0.1l-0.2,0.1c-0.1,0-0.2,0.1-0.3,0.1
				s-0.2,0.1-0.3,0.1h-0.1h-0.2H27c-0.1,0-0.2,0.1-0.4,0.1c-0.1,0-0.1,0-0.2,0h-0.1c-0.1,0-0.2,0-0.3,0.1l0,0l0,0.1
				c-0.1,0-0.2,0-0.3,0h-0.2c-0.2,0-0.3,0-0.5,0.1h-0.1c-0.3,0-0.5,0.1-0.8,0.1h-0.3c-0.1,0-0.2,0-0.3,0h-0.3c-0.1,0-0.2,0-0.3,0
				s-0.2,0-0.3,0h-0.2c-0.1,0-0.2,0-0.4,0h-0.1h-0.1h-0.2c-0.1,0-0.1,0-0.2,0h-0.1c-0.2,0-0.4,0-0.5-0.1h-0.2h-0.1
				c-0.1,0-0.2,0-0.3-0.1s-0.2,0-0.3-0.1l-0.3-0.1c-0.1,0-0.2-0.1-0.3-0.1c-0.1,0-0.2,0-0.2-0.1c-0.1,0-0.1,0-0.2-0.1h-0.1
				c-0.1,0-0.2-0.1-0.3-0.1l0,0c-0.1,0-0.2-0.1-0.3-0.1c-0.2-0.1-0.3-0.1-0.5-0.2l0,0c-0.1,0-0.2-0.1-0.3-0.1
				c-0.1,0-0.1-0.1-0.2-0.1s-0.1-0.1-0.2-0.1h-0.1l-0.2-0.1c-0.1,0-0.2-0.1-0.2-0.1l-0.2-0.1c-0.1,0-0.1-0.1-0.2-0.1
				s-0.2-0.1-0.2-0.1L15.4,37c0,0,0,0-0.1,0s-0.1-0.1-0.2-0.1l0,0l-4.6,6.4l0,0c0.9,0.6,1.9,1.2,2.9,1.6c0.1,0.1,0.3,0.1,0.4,0.2
				c0.1,0,0.2,0.1,0.3,0.1l0.2,0.1c0.3,0.1,0.7,0.3,1,0.4c0.1,0,0.1,0,0.2,0.1c0.1,0,0.3,0.1,0.4,0.1c0.2,0.1,0.5,0.2,0.8,0.2
				c0.1,0,0.3,0.1,0.4,0.1s0.3,0.1,0.4,0.1s0.3,0.1,0.4,0.1c0.3,0.1,0.5,0.1,0.8,0.2c0.1,0,0.2,0,0.2,0l0.3,0.1c0.1,0,0.3,0,0.4,0.1
				c0.1,0,0.2,0,0.3,0.1H20c0.1,0,0.1,0,0.2,0s0.3,0,0.4,0.1c0.1,0,0.1,0,0.2,0H21h0.2c0.1,0,0.2,0,0.3,0c0.1,0,0.1,0,0.2,0h0.2
				c0,0,0,0,0.1,0s0.1,0,0.2,0c0,0,0,0,0.1,0h0.1c0.1,0,0.2,0,0.3,0c0.1,0,0.2,0,0.2,0H23h0.1c0.1,0,0.3,0,0.4,0s0.3,0,0.4,0H24h0.1
				c0.1,0,0.2,0,0.2,0c0.1,0,0.2,0,0.3,0c0.1,0,0.1,0,0.1,0h0.1c0.1,0,0.1,0,0.2,0c0,0,0,0,0.1,0h0.2c0.1,0,0.1,0,0.2,0s0.2,0,0.3,0
				H26h0.2c0.1,0,0.1,0,0.2,0s0.3,0,0.4-0.1c0.1,0,0.1,0,0.2,0h0.1c0.1,0,0.2,0,0.3-0.1c0.1,0,0.3,0,0.4-0.1l0.3-0.1
				c0.1,0,0.2,0,0.2,0c0.3-0.1,0.5-0.1,0.8-0.2c0.1,0,0.3-0.1,0.4-0.1s0.3-0.1,0.4-0.1s0.3-0.1,0.4-0.1c0.3-0.1,0.5-0.2,0.8-0.2
				c0.1,0,0.3-0.1,0.4-0.1s0.1,0,0.2-0.1c0.3-0.1,0.7-0.3,1-0.4c0.1,0,0.1-0.1,0.2-0.1c0.1,0,0.2-0.1,0.3-0.1
				c0.1-0.1,0.3-0.1,0.4-0.2c1-0.5,2-1,2.9-1.6l0,0L31.6,36.8z M41,8.6c-1.4-1.7-3.9-1.9-5.5-0.5c-1.7,1.4-1.9,3.9-0.5,5.5l0,0
				c5.6,6.5,4.8,16.2-1.6,21.8c-0.3,0.3-0.6,0.5-0.9,0.7l4.6,6.4c10.4-7.5,12.6-22.1,5-32.5C41.8,9.5,41.4,9,41,8.6L41,8.6z
				 M7.8,23.8c0-3.7,1.3-7.3,3.7-10.1c1.4-1.6,1.3-4.1-0.4-5.5s-4-1.3-5.4,0.3l0,0C-2.7,18.3-1.7,33,8.1,41.4c0.5,0.4,1,0.8,1.5,1.2
				l4.6-6.4C10.2,33.3,7.8,28.7,7.8,23.8L7.8,23.8z"/>
		</defs>
		<clipPath id="SVGID_3_">
			<use xlink:href="#SVGID_2_"  style="overflow:visible;"/>
		</clipPath>
		<g id="Group_3" class="st1">
			<rect id="Rectangle_2" x="-0.3" y="-4.4" class="st0" width="47.2" height="53"/>
		</g>
	</g>
</g>
</svg>
